<?xml version="1.0" encoding="UTF-8"?>
<svg width="2400px" height="3600px" clip-rule="evenodd" fill-rule="evenodd" image-rendering="optimizeQuality" shape-rendering="geometricPrecision" text-rendering="geometricPrecision" viewBox="0 0 2400 3394.29" xmlns="http://www.w3.org/2000/svg">
 <defs>
  <style type="text/css">.fil0 {fill:#36302F}</style>
 </defs>
 <path class="fil0" d="m2146.8 1527.6c-9.8994-47.447-41.165-84.528-81.408-109.28-56.338 269.7-184.64 450.08-339.58 566.04-295.8 221.38-688.69 207.94-863.35 132.84-113.79-48.926-269.8-178.77-367.74-351.33-97.942-172.56-137.81-387.85-46.246-602.27 40.729 556.53 321.44 725.96 498.81 788.3 83.621 29.392 204.01 33.808 320.48-0.88114 181.69-54.112 353.86-203.38 362.07-501.42-67.874 67.461-137.17 105.51-208.34 104.53 92.542-59.929 146.98-177.55 165.31-246.29 19.955-74.847 21.685-173.18-21.765-226.19-39.557-48.263-121.78-55.555-160.08-39.869-22.888 9.3749-63.914 32.293-86.336 74.691-20.608 38.963-25.991 104.04-1.7291 142.62 7.4206 11.8 17.554 22.095 22.35 33.553 4.7989 11.466 1.2423 22.905-0.87771 32.558-6.3897 29.097-23.922 85.782-37.226 137.14-18.232 70.382-27.053 133.33 25.101 124.99-54.223 75.752-76.799 63.866-88.563 62.294-15.126-2.0206-22.567 0.058286-16.345-20.681 0.14743-1.3006 0.29029-2.5989 0.42857-3.896-40.963 13.665-77.041 11.811-103.67-20.029 33.915 0.67886 69.514-11.289 106.79-35.899 0.0068571-1.024 0.0068571-2.0491 8e-3 -3.0709-28.043 7.9017-52.72 5.2583-74.024-7.9314 25.898-0.208 50.501-6.7429 73.307-22.051-0.112-2.2823-0.23429-4.5623-0.37257-6.8366-26.078 4.5749-49.514-0.71429-67.997-24.487 26.063 3.6903 46.715-4.9794 63.382-22.742-0.29257-2.1817-0.59543-4.3611-0.90857-6.5371-22.27 9.6137-41.133 10.208-56.584 1.7829 20.226-2.7714 37.698-11.953 52.407-27.543-4.1897-23.225-9.4457-46.192-15.493-68.967-0.72914-1.2011-1.4571-2.3783-2.1851-3.544-28.053 35.664-51.559 75.095-71.961 117.1-34.121 95.239-13.133 191.97 49.621 289.82-31.432-33.963-54.974-68.281-71.238-102.91-2.7074 40.795-21.066 84.534-89.096 134.86 122.52-122.4 34.145-220.14 67.134-319.02l1.3086-3.8949c11.843-53.283 37.69-107.18 75.649-161.62-28.398-22.121-56.651-19.477-84.786 2.4171-5.0343 3.9177-10.344 8.9429-15.885 14.894 12.173 10.506 28.694 17.969 54.526 18.92-30.517 16.951-57.784 20.682-78.99 11.136-2.384 3.2411-4.792 6.5909-7.2183 10.039 10.159 31.233 25.778 53.797 51.586 60.218-31.699 9.9943-59.096 3.9474-84.378-10.005-1.0846 1.7623-2.1691 3.5326-3.2571 5.3143 11.427 38.45 28.167 67.141 55.725 75.969-40.214 16.032-69.806 8.7269-93.981-10.495l-2.0583 3.656c22.173 36.899 51.197 60.329 89.867 64.811-41.163 9.0297-81.163 10.819-117.18-12.333-0.57029 1.2309-1.136 2.4629-1.6926 3.6926 21.293 38.479 56.275 56.215 100.81 59.485-40.134 24.856-81.069 31.89-123.15 13.736-1.1429 10.218-1.2171 20.248 0.019429 30.039-44.072-14.064-69.581-44.258-81.53-86.238-7.1634-25.166-1.4091-58.848-0.75543-92.816 0.84114-43.673-0.97714-90.142 11.477-144.09 10.121 24.135 22.303 44.559 37.497 59.558 5.3531-15.066 6.7909-29.326 10.021-41.559 7.1086-26.917 12.298-46.886 12.081-64.202-0.26057-20.875-9.28-35.944-13.679-51.936-3.8811-14.112-3.0754-29.151-4.9703-46.714-10.752-99.691-40.306-183.35-80.655-257.8 63.225 26.717 102.45 67.287 125.26 117.34 45.769-123.45 17.882-233.01-117.66-322.26 94.378 11.062 162.6 59.769 199.23 153.91 89.768-115.57 79.493-223.12-30.827-322.65 93.155 18.083 147.31 82.489 169.15 185.27 144.77-79.886 199.07-180.81 121.18-312.47 84.261 36.497 128.88 101.1 102.82 215.79 155.05-10.522 244.14-81.591 253.65-225.73 49.038 61.99 68.767 134.29 7.4766 235.09 124.26 30.341 214.36-12.865 270.28-129.62 13.216 58.342 10.121 119.4-22.051 185.29 78.439 46.56 149.28 35.974 213.94-13.143-18.045 73.312-51.322 137.74-106.86 189.17 147.71 19.103 213.48 89.495 233.29 188.66-46.367-21.913-99.53-23.346-159.49-4.2994 100.62 135.2 155.76 280.96 100.14 440.02zm-1168.4-440.44c7.768 75.835-72.737 128.02-24.745 180.62 56.904-48.647 54.341-111.42 24.745-180.62z"/>
</svg>
